<svg width="708" height="633" viewBox="0 0 708 633" fill="none" xmlns="http://www.w3.org/2000/svg">
<path fill-rule="evenodd" clip-rule="evenodd" d="M665.288 505.28L664.006 508.911L662.7 512.545L661.368 516.182L660.009 519.82L658.62 523.459L657.2 527.099L655.747 530.736L654.258 534.372L652.731 538.003L651.162 541.628L649.549 545.243L647.889 548.848L646.177 552.437L644.411 556.009L642.586 559.559L640.699 563.084L638.745 566.579L636.723 570.04L634.626 573.462L632.453 576.84L630.199 580.17L627.862 583.445L625.437 586.662L622.922 589.813L620.315 592.894L617.613 595.9L614.814 598.823L611.915 601.66L608.916 604.403L605.815 607.049L602.611 609.591L599.305 612.024L595.895 614.342L592.382 616.542L588.767 618.619L585.05 620.567L581.235 622.383L577.321 624.064L573.313 625.605L569.211 627.004L565.02 628.258L560.743 629.365L556.384 630.323L551.946 631.131L547.434 631.788L542.853 632.294L538.208 632.648L533.502 632.85L528.742 632.902L523.933 632.803L519.079 632.555L514.187 632.161L509.261 631.622L504.308 630.941L499.333 630.121L494.342 629.165L489.339 628.077L484.332 626.86L479.324 625.52L474.323 624.06L469.332 622.487L464.357 620.804L459.403 619.018L454.475 617.134L449.578 615.159L444.716 613.098L439.893 610.958L435.113 608.746L430.379 606.468L425.696 604.13L421.067 601.74L416.494 599.305L411.98 596.831L407.527 594.326L403.137 591.795L398.811 589.247L394.552 586.688L390.36 584.124L386.236 581.562L382.18 579.008L378.193 576.468L374.273 573.95L370.421 571.457L366.636 568.996L362.916 566.571L359.26 564.189L355.667 561.853L352.134 559.568L348.66 557.337L345.243 555.165L341.879 553.054L338.566 551.008L335.302 549.029L332.083 547.12L328.906 545.281L325.768 543.515L322.665 541.822L319.596 540.203L316.555 538.658L313.54 537.187L310.547 535.79L307.574 534.465L304.615 533.213L301.67 532.032L298.733 530.921L295.802 529.88L292.873 528.906L289.944 527.998L287.012 527.155L284.072 526.375L281.123 525.655L278.162 524.993L275.186 524.387L272.192 523.835L269.178 523.332L266.141 522.877L263.08 522.467L259.992 522.098L256.876 521.767L253.729 521.47L250.55 521.204L247.338 520.965L244.091 520.75L240.809 520.555L237.49 520.376L234.134 520.21L230.741 520.052L227.309 519.899L223.838 519.748L220.329 519.595L216.782 519.435L213.196 519.267L209.571 519.087L205.909 518.891L202.208 518.677L198.471 518.442L194.697 518.184L190.887 517.898L187.042 517.583L183.163 517.236L179.251 516.853L175.308 516.432L171.336 515.97L167.335 515.464L163.31 514.911L159.26 514.308L155.189 513.652L151.1 512.942L146.995 512.173L142.876 511.343L138.748 510.451L134.612 509.493L130.473 508.467L126.333 507.371L122.197 506.204L118.068 504.962L113.95 503.645L109.847 502.251L105.763 500.778L101.701 499.225L97.6669 497.591L93.6638 495.875L89.6962 494.076L85.7685 492.195L81.8849 490.23L78.0497 488.181L74.2672 486.048L70.5417 483.832L66.8774 481.533L63.2785 479.152L59.7492 476.689L56.2933 474.146L52.9149 471.523L49.6179 468.822L46.4058 466.045L43.2823 463.194L40.2508 460.27L37.3146 457.275L34.4768 454.212L31.7402 451.084L29.1076 447.892L26.5816 444.64L24.1643 441.33L21.8579 437.965L19.6642 434.548L17.5849 431.083L15.6213 427.573L13.7744 424.02L12.0453 420.429L10.4343 416.803L8.942 413.145L7.56824 409.458L6.31298 405.747L5.17568 402.015L4.15587 398.265L3.25278 394.5L2.46564 390.724L1.79348 386.941L1.23522 383.153L0.789589 379.363L0.455296 375.575L0.230849 371.791L0.11458 368.014L0.104683 364.248L0.199294 360.495L0.396316 356.758L0.693596 353.039L1.08875 349.34L1.57931 345.665L2.16265 342.014L2.83608 338.392L3.59667 334.799L4.44146 331.237L5.36733 327.709L6.37103 324.215L7.44922 320.758L8.59854 317.339L9.81541 313.96L11.0963 310.621L12.4375 307.323L13.8353 304.067L15.2859 300.855L16.7857 297.686L18.3307 294.561L19.9172 291.481L21.5414 288.445L23.1996 285.454L24.888 282.508L26.6032 279.606L28.3413 276.748L30.0988 273.934L31.8722 271.162L33.6578 268.433L35.4521 265.746L37.2516 263.098L39.0528 260.491L40.8524 257.921L42.6469 255.389L44.4331 252.892L46.2078 250.43L47.9679 248L49.7104 245.601L51.4324 243.231L53.131 240.888L54.8037 238.571L56.4479 236.277L58.0612 234.005L59.6413 231.752L61.1861 229.516L62.6937 227.295L64.1622 225.087L65.59 222.889L66.9756 220.7L68.3178 218.517L69.6153 216.337L70.8673 214.159L72.0731 211.981L73.2319 209.799L74.3435 207.612L75.4076 205.418L76.4242 203.214L77.3935 200.999L78.3157 198.771L79.1916 196.527L80.0217 194.266L80.807 191.985L81.5485 189.685L82.2476 187.362L82.9055 185.015L83.524 182.643L84.1047 180.245L84.6496 177.819L85.1606 175.365L85.64 172.881L86.0902 170.368L86.5135 167.823L86.9125 165.248L87.29 162.641L87.6487 160.003L87.9916 157.333L88.3215 154.631L88.6417 151.898L88.9551 149.134L89.265 146.341L89.5747 143.517L89.8874 140.665L90.2065 137.786L90.5353 134.881L90.8771 131.95L91.2354 128.996L91.6135 126.021L92.0148 123.025L92.4426 120.011L92.9003 116.982L93.3913 113.939L93.9186 110.885L94.4856 107.821L95.0955 104.752L95.7511 101.68L96.4556 98.6065L97.2119 95.5359L98.0226 92.4708L98.8906 89.4143L99.8183 86.3697L100.808 83.3403L101.862 80.3294L102.983 77.3404L104.173 74.3768L105.432 71.4418L106.764 68.5392L108.169 65.6722L109.649 62.8443L111.205 60.0591L112.837 57.3198L114.547 54.6298L116.335 51.9924L118.201 49.4107L120.146 46.8881L122.169 44.4274L124.27 42.0316L126.449 39.7034L128.705 37.4457L131.038 35.2609L133.445 33.1513L135.926 31.1189L138.48 29.1657L141.104 27.2931L143.796 25.5025L146.556 23.7949L149.379 22.1712L152.265 20.6319L155.209 19.1771L158.211 17.8068L161.266 16.5207L164.372 15.3182L167.526 14.1983L170.726 13.1599L173.967 12.2015L177.247 11.3215L180.563 10.5179L183.911 9.78847L187.29 9.13081L190.695 8.54227L194.124 8.02L197.574 7.56095L201.043 7.16193L204.527 6.81952L208.024 6.53024L211.532 6.29046L215.049 6.09646L218.572 5.94441L222.1 5.83046L225.631 5.75069L229.163 5.70119L232.696 5.67806L236.227 5.67739L239.757 5.69536L243.284 5.72821L246.807 5.77228L250.328 5.82401L253.844 5.88L257.357 5.93695L260.867 5.99182L264.373 6.04168L267.878 6.08387L271.381 6.11593L274.883 6.13564L278.386 6.14104L281.89 6.13045L285.398 6.10246L288.91 6.05593L292.428 5.99007L295.953 5.90432L299.487 5.79851L303.033 5.67272L306.59 5.52737L310.162 5.36318L313.75 5.18118L317.356 4.98275L320.981 4.7695L324.626 4.54322L328.293 4.30572L331.984 4.05885L335.7 3.80452L339.443 3.54468L343.212 3.28136L347.01 3.01665L350.837 2.75274L354.695 2.49193L358.584 2.23653L362.504 1.98902L366.457 1.75191L370.443 1.52784L374.463 1.31952L378.515 1.1297L382.601 0.961221L386.721 0.817005L390.874 0.699994L395.06 0.613167L399.278 0.559539L403.528 0.542133L407.809 0.563968L412.119 0.628009L416.459 0.737234L420.826 0.894547L425.22 1.10279L429.638 1.3647L434.08 1.68294L438.542 2.06001L443.025 2.4983L447.525 3.00005L452.041 3.56732L456.571 4.20197L461.113 4.90568L465.664 5.67992L470.223 6.52596L474.787 7.44499L479.355 8.43817L483.923 9.50653L488.491 10.6511L493.054 11.8727L497.611 13.1722L502.159 14.5502L506.697 16.0074L511.22 17.5443L515.727 19.1613L520.215 20.8585L524.682 22.6363L529.125 24.4945L533.54 26.4331L537.927 28.4518L542.282 30.5503L546.603 32.7282L550.888 34.9848L555.133 37.3193L559.337 39.731L563.498 42.2189L567.613 44.7818L571.681 47.4187L575.699 50.1281L579.665 52.9087L583.578 55.7589L587.437 58.6772L591.239 61.662L594.983 64.7113L598.668 67.8235L602.292 70.9967L605.856 74.2288L609.357 77.5179L612.794 80.862L616.168 84.259L619.478 87.7068L622.723 91.2034L625.902 94.7467L629.016 98.3345L632.065 101.965L635.048 105.636L637.965 109.345L640.817 113.09L643.604 116.87L646.326 120.682L648.983 124.524L651.576 128.396L654.106 132.294L656.572 136.217L658.975 140.164L661.317 144.133L663.596 148.122L665.814 152.13L667.972 156.155L670.069 160.197L672.107 164.253L674.085 168.323L676.004 172.406L677.865 176.5L679.667 180.604L681.412 184.717L683.1 188.839L684.73 192.967L686.304 197.102L687.822 201.243L689.283 205.388L690.689 209.537L692.039 213.689L693.333 217.844L694.571 222L695.754 226.157L696.881 230.314L697.952 234.47L698.967 238.626L699.925 242.779L700.826 246.93L701.671 251.078L702.458 255.222L703.187 259.361L703.859 263.496L704.472 267.624L705.027 271.746L705.523 275.86L705.96 279.966L706.339 284.063L706.659 288.15L706.92 292.227L707.124 296.293L707.271 300.347L707.362 304.388L707.397 308.417L707.379 312.431L707.309 316.432L707.188 320.417L707.018 324.388L706.802 328.343L706.54 332.283L706.234 336.207L705.886 340.115L705.497 344.007L705.07 347.883L704.604 351.743L704.103 355.587L703.567 359.415L702.997 363.228L702.396 367.025L701.764 370.807L701.104 374.575L700.415 378.328L699.7 382.067L698.96 385.792L698.195 389.505L697.408 393.205L696.598 396.893L695.768 400.569L694.918 404.235L694.05 407.89L693.163 411.536L692.26 415.174L691.341 418.803L690.406 422.424L689.456 426.039L688.493 429.649L687.516 433.253L686.526 436.852L685.524 440.448L684.509 444.042L683.483 447.633L682.445 451.222L681.395 454.811L680.333 458.4L679.26 461.99L678.175 465.581L677.077 469.173L675.967 472.768L674.844 476.366L673.707 479.967L672.555 483.571L671.388 487.179L670.205 490.792L669.005 494.408L667.786 498.028L666.548 501.652L665.288 505.28Z" fill="#5C494F" fill-opacity="0.09"/>
</svg>
