<svg width="784" height="832" viewBox="0 0 784 832" fill="none" xmlns="http://www.w3.org/2000/svg">
<path d="M423.974 839.489C423.278 838.882 422.907 838.205 422.861 837.46C422.809 836.708 423.122 835.94 423.8 835.157L426.596 831.93L427.345 832.583L424.613 835.737C424.112 836.315 423.871 836.879 423.889 837.428C423.901 837.97 424.16 838.462 424.666 838.904C425.243 839.407 425.852 839.623 426.495 839.552C427.131 839.487 427.721 839.141 428.265 838.513L430.794 835.593L431.543 836.246L428.812 839.399C428.311 839.978 428.07 840.542 428.088 841.09C428.1 841.633 428.362 842.128 428.876 842.576C429.445 843.073 430.055 843.289 430.704 843.224C431.34 843.159 431.93 842.813 432.474 842.185L435.004 839.265L435.753 839.918L430.932 845.484L430.214 844.858L431.094 843.843C430.604 844.009 430.103 844.031 429.593 843.908C429.082 843.784 428.598 843.523 428.141 843.125C427.677 842.72 427.362 842.271 427.195 841.779C427.022 841.281 427.019 840.764 427.186 840.229C426.664 840.418 426.125 840.449 425.568 840.322C424.998 840.196 424.466 839.919 423.974 839.489Z" fill="#8F8F76"/>
<path d="M419.304 824.862C419.8 825.369 420.134 825.937 420.306 826.566C420.472 827.203 420.466 827.837 420.288 828.47C420.111 829.103 419.766 829.671 419.254 830.175C418.741 830.679 418.168 831.014 417.534 831.18C416.899 831.345 416.27 831.336 415.646 831.152C415.021 830.967 414.461 830.621 413.965 830.114C413.469 829.607 413.135 829.039 412.963 828.41C412.791 827.78 412.797 827.152 412.981 826.526C413.159 825.893 413.503 825.325 414.016 824.821C414.528 824.317 415.101 823.982 415.736 823.816C416.363 823.644 416.993 823.647 417.624 823.824C418.248 824.009 418.808 824.355 419.304 824.862ZM418.676 825.48C418.31 825.107 417.901 824.855 417.447 824.725C416.98 824.595 416.509 824.6 416.033 824.741C415.557 824.882 415.12 825.149 414.721 825.541C414.321 825.934 414.047 826.368 413.898 826.842C413.748 827.317 413.737 827.786 413.864 828.25C413.978 828.713 414.218 829.132 414.584 829.506C414.949 829.879 415.365 830.131 415.832 830.261C416.286 830.391 416.754 830.389 417.236 830.255C417.712 830.114 418.149 829.847 418.549 829.454C418.948 829.062 419.222 828.628 419.372 828.154C419.515 827.673 419.529 827.2 419.415 826.736C419.288 826.273 419.041 825.854 418.676 825.48Z" fill="#8F8F76"/>
<path d="M400.981 820.259L408.912 813.551L409.525 814.279L408.414 815.219C408.984 815.128 409.528 815.187 410.046 815.397C410.558 815.599 411.013 815.936 411.41 816.407C411.855 816.936 412.136 817.516 412.255 818.15C412.373 818.783 412.317 819.405 412.087 820.015C411.857 820.625 411.464 821.166 410.908 821.636C410.352 822.106 409.755 822.403 409.116 822.528C408.476 822.653 407.859 822.601 407.263 822.372C406.66 822.148 406.136 821.773 405.691 821.244C405.306 820.787 405.057 820.296 404.942 819.769C404.815 819.241 404.834 818.705 404.999 818.162L401.621 821.019L400.981 820.259ZM410.682 816.913C410.352 816.52 409.965 816.242 409.522 816.079C409.066 815.914 408.596 815.884 408.11 815.989C407.619 816.087 407.16 816.316 406.732 816.678C406.305 817.04 406.002 817.455 405.823 817.924C405.638 818.386 405.592 818.852 405.685 819.324C405.764 819.795 405.969 820.227 406.3 820.619C406.636 821.019 407.033 821.301 407.489 821.466C407.931 821.629 408.398 821.662 408.889 821.564C409.375 821.46 409.831 821.226 410.259 820.865C410.686 820.503 410.992 820.091 411.177 819.63C411.356 819.161 411.405 818.691 411.326 818.22C411.234 817.748 411.019 817.312 410.682 816.913Z" fill="#8F8F76"/>
<path d="M396.512 797.486C396.756 797.547 396.992 797.662 397.221 797.834C397.443 798.011 397.637 798.223 397.805 798.47C398.192 799.042 398.336 799.587 398.237 800.106C398.137 800.625 397.806 801.076 397.242 801.458L391.532 805.336L390.975 804.513L392.306 803.608L391.058 801.766L391.753 801.294L393.001 803.137L396.638 800.667C397.001 800.42 397.219 800.143 397.291 799.834C397.356 799.531 397.273 799.209 397.043 798.869C396.792 798.498 396.483 798.267 396.118 798.177L396.512 797.486Z" fill="#8F8F76"/>
<path d="M392.202 791.516C391.962 791.126 391.675 790.81 391.339 790.567C390.991 790.322 390.611 790.167 390.199 790.102L390.454 789.288C390.959 789.36 391.426 789.55 391.855 789.856C392.284 790.161 392.652 790.565 392.96 791.066C393.356 791.71 393.573 792.365 393.611 793.033C393.641 793.705 393.499 794.329 393.185 794.906C392.871 795.482 392.408 795.959 391.796 796.336C391.184 796.713 390.555 796.919 389.909 796.955C389.258 796.983 388.653 796.846 388.094 796.543C387.536 796.24 387.073 795.791 386.706 795.194C386.364 794.638 386.183 794.059 386.164 793.457C386.14 792.847 386.273 792.272 386.565 791.73C386.852 791.181 387.281 790.72 387.851 790.347L392.02 794.883C392.431 794.411 392.657 793.877 392.697 793.283C392.724 792.685 392.559 792.096 392.202 791.516ZM387.434 794.747C387.702 795.184 388.048 795.514 388.47 795.737C388.878 795.956 389.327 796.053 389.815 796.027C390.29 795.997 390.762 795.838 391.231 795.55C391.35 795.476 391.435 795.418 391.486 795.376L387.907 791.48C387.441 791.898 387.161 792.405 387.066 793C386.964 793.6 387.087 794.182 387.434 794.747Z" fill="#8F8F76"/>
<path d="M377.641 779.206C377.219 778.383 377.126 777.619 377.361 776.911C377.592 776.195 378.169 775.601 379.091 775.129L382.892 773.183L383.345 774.067L379.632 775.969C378.95 776.318 378.516 776.75 378.329 777.265C378.138 777.772 378.196 778.324 378.502 778.922C378.851 779.603 379.338 780.03 379.962 780.204C380.577 780.381 381.254 780.281 381.994 779.902L385.433 778.141L385.887 779.026L382.173 780.927C381.492 781.276 381.058 781.708 380.871 782.223C380.68 782.73 380.739 783.287 381.05 783.893C381.395 784.566 381.882 784.993 382.51 785.175C383.125 785.352 383.802 785.252 384.542 784.873L387.981 783.112L388.435 783.997L381.88 787.353L381.446 786.506L382.642 785.893C382.124 785.865 381.651 785.699 381.222 785.394C380.793 785.089 380.44 784.667 380.163 784.127C379.882 783.579 379.756 783.046 379.784 782.528C379.808 782.002 379.998 781.522 380.352 781.089C379.797 781.069 379.284 780.897 378.813 780.572C378.33 780.242 377.939 779.787 377.641 779.206Z" fill="#8F8F76"/>
<path d="M371.397 765.734C371.136 765.095 371.046 764.456 371.128 763.818C371.201 763.184 371.441 762.612 371.849 762.104C372.256 761.595 372.796 761.204 373.471 760.929C374.153 760.651 374.819 760.551 375.466 760.63C376.113 760.709 376.69 760.948 377.196 761.346C377.689 761.74 378.069 762.261 378.334 762.909C378.56 763.461 378.652 764.008 378.611 764.549C378.558 765.085 378.369 765.585 378.045 766.05L381.844 764.502L382.22 765.422L372.885 769.225L372.525 768.344L373.873 767.794C373.311 767.701 372.816 767.479 372.391 767.128C371.961 766.769 371.63 766.304 371.397 765.734ZM377.543 763.306C377.349 762.831 377.064 762.443 376.689 762.142C376.306 761.845 375.866 761.671 375.372 761.621C374.874 761.562 374.365 761.638 373.847 761.849C373.328 762.06 372.916 762.359 372.61 762.746C372.292 763.127 372.1 763.558 372.035 764.038C371.969 764.519 372.033 764.996 372.227 765.471C372.425 765.955 372.716 766.346 373.1 766.643C373.48 766.932 373.919 767.105 374.417 767.165C374.903 767.219 375.405 767.14 375.924 766.929C376.443 766.717 376.861 766.421 377.179 766.04C377.493 765.649 377.685 765.219 377.754 764.747C377.811 764.27 377.741 763.79 377.543 763.306Z" fill="#8F8F76"/>
<path d="M374.066 751.749C374.292 752.421 374.346 753.077 374.227 753.717C374.1 754.36 373.818 754.927 373.383 755.418C372.947 755.908 372.389 756.268 371.707 756.496C371.026 756.724 370.363 756.774 369.719 756.646C369.075 756.517 368.511 756.234 368.028 755.795C367.545 755.356 367.191 754.801 366.964 754.129C366.737 753.457 366.683 752.801 366.802 752.16C366.921 751.52 367.2 750.959 367.638 750.477C368.073 749.987 368.632 749.627 369.313 749.399C369.995 749.171 370.657 749.121 371.302 749.249C371.943 749.369 372.509 749.647 373.001 750.083C373.484 750.521 373.839 751.076 374.066 751.749ZM373.229 752.029C373.062 751.534 372.802 751.129 372.45 750.814C372.086 750.493 371.658 750.291 371.168 750.21C370.677 750.128 370.166 750.176 369.635 750.354C369.104 750.532 368.668 750.801 368.327 751.162C367.986 751.522 367.771 751.939 367.684 752.411C367.586 752.877 367.62 753.358 367.787 753.853C367.954 754.348 368.22 754.756 368.584 755.077C368.936 755.392 369.36 755.595 369.853 755.685C370.344 755.767 370.854 755.719 371.385 755.541C371.916 755.363 372.352 755.094 372.694 754.733C373.032 754.364 373.251 753.946 373.349 753.48C373.436 753.008 373.396 752.524 373.229 752.029Z" fill="#8F8F76"/>
<path d="M365.352 744.188C364.812 744.098 364.358 743.868 363.99 743.497C363.619 743.117 363.34 742.599 363.153 741.944L364.082 741.681L364.134 741.913C364.347 742.658 364.743 743.177 365.321 743.469C365.9 743.761 366.602 743.79 367.428 743.557L371.038 742.535L371.311 743.491L364.226 745.496L363.964 744.581L365.352 744.188Z" fill="#8F8F76"/>
<path d="M360.803 732.649L360.58 731.68L367.76 730.045L367.983 731.014L360.803 732.649ZM359.12 732.515C359.166 732.715 359.137 732.899 359.032 733.066C358.927 733.234 358.779 733.339 358.588 733.383C358.406 733.424 358.231 733.392 358.063 733.287C357.895 733.181 357.787 733.029 357.741 732.829C357.695 732.629 357.725 732.445 357.83 732.277C357.926 732.112 358.064 732.008 358.247 731.967C358.447 731.921 358.631 731.951 358.799 732.057C358.967 732.162 359.074 732.315 359.12 732.515Z" fill="#8F8F76"/>
<path d="M358.702 723.234C358.522 722.328 358.645 721.558 359.071 720.923C359.486 720.281 360.198 719.862 361.205 719.665L365.396 718.848L365.59 719.823L361.495 720.622C360.744 720.768 360.208 721.067 359.889 721.52C359.569 721.972 359.479 722.546 359.617 723.241C359.771 724.02 360.127 724.592 360.685 724.959C361.232 725.318 361.913 725.418 362.729 725.259L366.521 724.52L366.715 725.495L359.487 726.904L359.301 725.97L360.634 725.71C360.142 725.531 359.73 725.23 359.4 724.81C359.058 724.382 358.825 723.857 358.702 723.234Z" fill="#8F8F76"/>
<path d="M363.808 709.991C363.935 710.708 363.893 711.378 363.681 712.002C363.468 712.617 363.11 713.134 362.606 713.553C362.093 713.974 361.482 714.246 360.774 714.369C360.066 714.492 359.403 714.441 358.785 714.217C358.167 713.993 357.652 713.628 357.24 713.121C356.826 712.606 356.556 711.99 356.429 711.273C356.318 710.648 356.344 710.07 356.506 709.54C356.657 709.002 356.942 708.55 357.36 708.184L357.986 708.828C357.67 709.129 357.457 709.479 357.347 709.877C357.229 710.277 357.208 710.692 357.284 711.124C357.377 711.648 357.58 712.101 357.894 712.482C358.198 712.855 358.586 713.124 359.061 713.288C359.534 713.443 360.046 713.472 360.598 713.376C361.159 713.279 361.635 713.078 362.027 712.773C362.407 712.46 362.68 712.077 362.846 711.622C363.001 711.159 363.032 710.666 362.939 710.142C362.863 709.71 362.705 709.325 362.465 708.988C362.225 708.651 361.904 708.394 361.503 708.217L361.871 707.4C362.39 707.604 362.818 707.932 363.154 708.385C363.481 708.84 363.699 709.375 363.808 709.991Z" fill="#8F8F76"/>
<path d="M355.149 703.534L354.989 702.553L362.26 701.39L362.421 702.371L355.149 703.534ZM353.478 703.291C353.511 703.493 353.47 703.675 353.354 703.835C353.239 703.995 353.084 704.091 352.89 704.122C352.706 704.151 352.534 704.108 352.373 703.992C352.212 703.876 352.115 703.717 352.082 703.514C352.049 703.311 352.09 703.13 352.205 702.97C352.312 702.811 352.457 702.717 352.642 702.687C352.844 702.655 353.026 702.697 353.187 702.813C353.348 702.929 353.445 703.088 353.478 703.291Z" fill="#8F8F76"/>
<path d="M350.297 692.062L360.578 690.571L360.718 691.512L359.277 691.721C359.811 691.946 360.243 692.284 360.574 692.736C360.904 693.178 361.115 693.704 361.205 694.313C361.307 694.997 361.242 695.638 361.011 696.237C360.779 696.837 360.405 697.334 359.888 697.73C359.371 698.125 358.753 698.376 358.032 698.48C357.312 698.585 356.646 698.521 356.036 698.289C355.426 698.056 354.927 697.686 354.54 697.176C354.144 696.667 353.895 696.072 353.793 695.389C353.705 694.798 353.751 694.249 353.93 693.742C354.099 693.227 354.396 692.783 354.822 692.41L350.444 693.045L350.297 692.062ZM360.32 694.357C360.245 693.849 360.061 693.409 359.77 693.036C359.468 692.656 359.083 692.381 358.614 692.214C358.144 692.037 357.632 691.988 357.078 692.069C356.524 692.149 356.048 692.341 355.649 692.644C355.25 692.937 354.965 693.309 354.796 693.758C354.616 694.199 354.564 694.673 354.64 695.181C354.717 695.698 354.906 696.147 355.208 696.527C355.499 696.9 355.88 697.175 356.35 697.352C356.818 697.52 357.33 697.563 357.884 697.483C358.438 697.403 358.915 697.216 359.315 696.922C359.713 696.619 360.002 696.247 360.182 695.806C360.351 695.357 360.397 694.874 360.32 694.357Z" fill="#8F8F76"/>
<path d="M352.372 685.163L352.239 684.178L359.541 683.22L359.674 684.205L352.372 685.163ZM350.709 684.873C350.736 685.077 350.69 685.257 350.57 685.414C350.45 685.571 350.292 685.662 350.098 685.687C349.913 685.712 349.742 685.664 349.584 685.543C349.427 685.423 349.334 685.26 349.307 685.057C349.279 684.854 349.325 684.673 349.445 684.516C349.556 684.361 349.704 684.271 349.889 684.246C350.093 684.22 350.273 684.267 350.431 684.387C350.589 684.508 350.681 684.67 350.709 684.873Z" fill="#8F8F76"/>
<path d="M347.838 673.606L358.154 672.386L358.269 673.331L356.823 673.502C357.351 673.74 357.774 674.089 358.094 674.55C358.412 675.001 358.609 675.532 358.684 676.143C358.767 676.829 358.686 677.468 358.438 678.061C358.191 678.655 357.804 679.142 357.277 679.524C356.75 679.906 356.126 680.14 355.403 680.225C354.68 680.311 354.016 680.229 353.412 679.981C352.808 679.733 352.32 679.349 351.946 678.83C351.563 678.311 351.329 677.709 351.245 677.023C351.173 676.43 351.233 675.883 351.425 675.381C351.608 674.871 351.916 674.435 352.352 674.073L347.958 674.593L347.838 673.606ZM357.797 676.164C357.735 675.654 357.563 675.209 357.282 674.829C356.99 674.441 356.612 674.156 356.148 673.976C355.683 673.787 355.172 673.725 354.616 673.791C354.06 673.857 353.579 674.036 353.173 674.328C352.765 674.611 352.471 674.975 352.291 675.419C352.099 675.856 352.035 676.328 352.097 676.838C352.161 677.357 352.338 677.81 352.63 678.199C352.912 678.579 353.285 678.864 353.75 679.053C354.214 679.233 354.724 679.29 355.28 679.225C355.836 679.159 356.318 678.984 356.725 678.701C357.132 678.409 357.43 678.044 357.621 677.608C357.802 677.164 357.861 676.682 357.797 676.164Z" fill="#8F8F76"/>
<path d="M349.333 659.794L356.66 659.051L356.759 659.998L355.422 660.133C355.895 660.348 356.281 660.67 356.58 661.099C356.869 661.53 357.045 662.037 357.107 662.622C357.207 663.578 357.023 664.361 356.552 664.972C356.071 665.574 355.315 665.928 354.285 666.032L350.036 666.463L349.932 665.475L354.083 665.054C354.854 664.975 355.419 664.726 355.778 664.305C356.137 663.884 356.279 663.32 356.205 662.615C356.124 661.845 355.827 661.26 355.316 660.862C354.796 660.464 354.117 660.308 353.282 660.393L349.437 660.783L349.333 659.794Z" fill="#8F8F76"/>
<path d="M348.283 649.683C348.199 648.762 348.402 648.009 348.892 647.423C349.373 646.829 350.124 646.487 351.147 646.398L355.401 646.028L355.491 647.018L351.335 647.38C350.572 647.446 350.008 647.687 349.643 648.103C349.278 648.519 349.128 649.08 349.192 649.786C349.264 650.576 349.558 651.183 350.075 651.607C350.581 652.022 351.248 652.193 352.076 652.121L355.925 651.787L356.015 652.776L348.679 653.414L348.593 652.466L349.946 652.349C349.475 652.118 349.097 651.776 348.812 651.323C348.517 650.861 348.34 650.315 348.283 649.683Z" fill="#8F8F76"/>
<path d="M354.128 636.341C354.311 636.514 354.459 636.732 354.574 636.995C354.68 637.258 354.745 637.538 354.769 637.836C354.825 638.525 354.682 639.069 354.34 639.47C353.998 639.871 353.487 640.097 352.808 640.149L345.926 640.678L345.846 639.688L347.451 639.564L347.271 637.345L348.108 637.281L348.288 639.5L352.671 639.163C353.109 639.129 353.435 638.996 353.65 638.765C353.856 638.533 353.943 638.213 353.91 637.804C353.873 637.357 353.718 637.004 353.444 636.744L354.128 636.341Z" fill="#8F8F76"/>
<path d="M346.005 620.17L353.354 619.701L353.419 620.651L352.077 620.736C352.542 620.968 352.916 621.305 353.198 621.745C353.472 622.186 353.628 622.699 353.668 623.286C353.734 624.245 353.52 625.021 353.027 625.614C352.524 626.197 351.756 626.522 350.722 626.588L346.461 626.86L346.393 625.869L350.557 625.603C351.33 625.554 351.904 625.325 352.278 624.918C352.653 624.511 352.816 623.953 352.767 623.245C352.715 622.472 352.44 621.877 351.944 621.46C351.439 621.044 350.767 620.862 349.929 620.915L346.072 621.162L346.005 620.17Z" fill="#8F8F76"/>
<path d="M352.272 609.781C352.451 609.958 352.595 610.178 352.705 610.443C352.806 610.709 352.865 610.99 352.883 611.288C352.925 611.978 352.772 612.519 352.422 612.913C352.072 613.307 351.557 613.524 350.877 613.562L343.986 613.955L343.925 612.963L345.532 612.871L345.396 610.65L346.235 610.602L346.371 612.824L350.76 612.573C351.198 612.548 351.527 612.422 351.747 612.195C351.957 611.968 352.05 611.649 352.025 611.239C351.997 610.792 351.849 610.436 351.58 610.171L352.272 609.781Z" fill="#8F8F76"/>
<path d="M352.151 598.723C352.19 599.385 352.033 599.907 351.682 600.291C351.33 600.665 350.823 600.871 350.162 600.907L341.83 601.36L341.772 600.368L350.019 599.919C350.457 599.895 350.787 599.774 351.008 599.557C351.219 599.339 351.313 599.026 351.289 598.616C351.274 598.355 351.219 598.134 351.124 597.952L351.944 597.837C352.064 598.12 352.133 598.416 352.151 598.723Z" fill="#8F8F76"/>
<path d="M343.844 587L351.184 586.408L351.265 587.357L349.813 587.474C350.332 587.732 350.742 588.097 351.044 588.568C351.346 589.031 351.522 589.569 351.574 590.183C351.633 590.871 351.527 591.507 351.258 592.091C350.989 592.674 350.584 593.147 350.044 593.509C349.503 593.871 348.87 594.081 348.144 594.139C347.419 594.198 346.759 594.092 346.164 593.821C345.57 593.551 345.096 593.149 344.741 592.616C344.378 592.083 344.167 591.473 344.109 590.785C344.058 590.189 344.138 589.644 344.349 589.15C344.55 588.647 344.875 588.223 345.323 587.878L343.928 587.99L343.844 587ZM350.688 590.17C350.645 589.659 350.489 589.208 350.222 588.817C349.945 588.418 349.578 588.12 349.121 587.923C348.663 587.716 348.155 587.635 347.597 587.68C347.039 587.725 346.551 587.886 346.134 588.163C345.717 588.431 345.41 588.784 345.212 589.221C345.005 589.65 344.923 590.12 344.967 590.631C345.011 591.152 345.172 591.612 345.449 592.011C345.716 592.401 346.079 592.7 346.536 592.906C346.993 593.104 347.501 593.18 348.059 593.135C348.617 593.09 349.105 592.934 349.523 592.666C349.939 592.389 350.251 592.036 350.459 591.607C350.656 591.17 350.732 590.691 350.688 590.17Z" fill="#8F8F76"/>
<path d="M342.806 577.169C342.726 576.482 342.812 575.844 343.063 575.252C343.304 574.661 343.69 574.177 344.219 573.798C344.748 573.42 345.374 573.19 346.098 573.109C346.821 573.028 347.484 573.113 348.087 573.365C348.689 573.617 349.18 574.003 349.56 574.524C349.94 575.045 350.17 575.648 350.249 576.334C350.32 576.946 350.255 577.512 350.052 578.033C349.848 578.544 349.518 578.976 349.06 579.327L350.507 579.165L350.617 580.111L340.294 581.268L340.179 580.28L344.576 579.788C344.067 579.535 343.665 579.185 343.369 578.74C343.062 578.286 342.875 577.762 342.806 577.169ZM349.381 576.502C349.322 575.992 349.152 575.542 348.872 575.15C348.582 574.76 348.206 574.474 347.743 574.291C347.279 574.099 346.769 574.034 346.212 574.096C345.656 574.158 345.174 574.335 344.766 574.624C344.357 574.905 344.06 575.267 343.877 575.71C343.684 576.154 343.617 576.631 343.677 577.141C343.737 577.661 343.912 578.115 344.201 578.505C344.481 578.887 344.852 579.174 345.316 579.367C345.779 579.55 346.289 579.61 346.845 579.547C347.402 579.485 347.884 579.314 348.293 579.033C348.701 578.743 349.002 578.381 349.196 577.946C349.38 577.502 349.441 577.021 349.381 576.502Z" fill="#8F8F76"/>
<path d="M348.712 564.132C348.813 564.834 348.748 565.488 348.515 566.096C348.273 566.705 347.893 567.211 347.376 567.614C346.859 568.017 346.245 568.268 345.534 568.368C344.822 568.469 344.161 568.397 343.55 568.153C342.94 567.909 342.437 567.528 342.041 567.008C341.645 566.489 341.396 565.879 341.295 565.177C341.193 564.475 341.259 563.82 341.492 563.212C341.724 562.604 342.1 562.104 342.618 561.71C343.135 561.307 343.749 561.056 344.461 560.956C345.173 560.855 345.834 560.927 346.444 561.171C347.053 561.406 347.561 561.782 347.966 562.3C348.361 562.819 348.61 563.43 348.712 564.132ZM347.838 564.255C347.763 563.737 347.581 563.292 347.291 562.918C346.991 562.536 346.607 562.26 346.139 562.091C345.671 561.921 345.16 561.875 344.605 561.953C344.051 562.031 343.573 562.216 343.172 562.509C342.771 562.801 342.485 563.171 342.314 563.619C342.133 564.059 342.08 564.538 342.154 565.056C342.229 565.573 342.417 566.022 342.717 566.404C343.007 566.778 343.387 567.054 343.856 567.233C344.324 567.403 344.835 567.449 345.389 567.371C345.944 567.293 346.421 567.108 346.822 566.815C347.222 566.514 347.513 566.143 347.694 565.703C347.865 565.255 347.913 564.772 347.838 564.255Z" fill="#8F8F76"/>
<path d="M341.341 555.445C340.815 555.294 340.389 555.013 340.065 554.603C339.74 554.183 339.521 553.637 339.41 552.965L340.363 552.81L340.388 553.047C340.515 553.811 340.85 554.371 341.392 554.727C341.934 555.083 342.628 555.192 343.476 555.054L347.179 554.451L347.342 555.431L340.074 556.616L339.918 555.676L341.341 555.445Z" fill="#8F8F76"/>
<path d="M344.675 544.718C344.59 544.269 344.435 543.871 344.208 543.523C343.971 543.168 343.671 542.887 343.309 542.678L343.839 542.011C344.284 542.261 344.653 542.606 344.945 543.046C345.236 543.486 345.436 543.994 345.545 544.572C345.684 545.315 345.652 546.005 345.449 546.64C345.236 547.277 344.88 547.808 344.38 548.232C343.88 548.656 343.277 548.934 342.57 549.064C341.864 549.194 341.202 549.159 340.585 548.96C339.967 548.751 339.451 548.405 339.037 547.921C338.623 547.438 338.352 546.852 338.223 546.164C338.102 545.522 338.14 544.917 338.338 544.349C338.533 543.772 338.864 543.284 339.331 542.885C339.795 542.476 340.361 542.201 341.027 542.06L343.3 547.79C343.853 547.499 344.254 547.083 344.504 546.544C344.744 545.996 344.8 545.388 344.675 544.718ZM339.062 546.009C339.157 546.514 339.362 546.946 339.676 547.305C339.98 547.657 340.364 547.909 340.829 548.061C341.284 548.205 341.782 548.227 342.323 548.127C342.461 548.102 342.561 548.079 342.624 548.058L340.674 543.135C340.089 543.357 339.646 543.728 339.344 544.249C339.034 544.771 338.94 545.358 339.062 546.009Z" fill="#8F8F76"/>
<path d="M341.018 526.672C340.918 526.225 340.748 525.833 340.51 525.494C340.26 525.147 339.95 524.876 339.581 524.681L340.087 523.995C340.542 524.23 340.922 524.561 341.229 524.99C341.536 525.42 341.753 525.921 341.882 526.495C342.047 527.232 342.04 527.922 341.859 528.565C341.668 529.209 341.331 529.752 340.847 530.194C340.362 530.635 339.769 530.934 339.067 531.089C338.366 531.244 337.703 531.233 337.08 531.055C336.455 530.869 335.927 530.541 335.496 530.072C335.066 529.604 334.774 529.028 334.621 528.345C334.478 527.707 334.495 527.101 334.672 526.527C334.847 525.943 335.161 525.444 335.613 525.028C336.063 524.604 336.618 524.309 337.28 524.143L339.752 529.791C340.294 529.479 340.681 529.05 340.912 528.502C341.132 527.946 341.167 527.336 341.018 526.672ZM335.455 528.16C335.567 528.661 335.787 529.086 336.114 529.434C336.429 529.775 336.822 530.013 337.292 530.148C337.752 530.276 338.25 530.281 338.788 530.162C338.924 530.131 339.024 530.105 339.085 530.081L336.964 525.231C336.387 525.473 335.957 525.86 335.675 526.391C335.383 526.924 335.31 527.514 335.455 528.16Z" fill="#8F8F76"/>
<path d="M338.555 514.53C338.763 514.672 338.944 514.863 339.099 515.105C339.245 515.348 339.353 515.615 339.424 515.905C339.588 516.576 339.532 517.136 339.258 517.586C338.983 518.037 338.515 518.341 337.852 518.501L331.142 520.117L330.907 519.151L332.472 518.774L331.944 516.611L332.761 516.415L333.288 518.577L337.562 517.548C337.989 517.446 338.29 517.263 338.466 516.999C338.633 516.738 338.668 516.408 338.57 516.009C338.464 515.574 338.256 515.25 337.944 515.037L338.555 514.53Z" fill="#8F8F76"/>
<path d="M324.826 501.278L334.853 498.561L335.104 499.48L333.699 499.861C334.255 500.019 334.724 500.303 335.107 500.712C335.488 501.111 335.759 501.608 335.922 502.203C336.104 502.869 336.116 503.513 335.958 504.136C335.799 504.76 335.487 505.299 335.022 505.754C334.556 506.209 333.972 506.531 333.269 506.722C332.566 506.912 331.898 506.929 331.265 506.772C330.632 506.614 330.092 506.306 329.647 505.846C329.193 505.389 328.875 504.828 328.693 504.162C328.535 503.585 328.515 503.035 328.632 502.51C328.738 501.978 328.98 501.502 329.359 501.08L325.089 502.237L324.826 501.278ZM335.048 502.352C334.913 501.857 334.678 501.442 334.345 501.107C333.999 500.765 333.584 500.539 333.099 500.429C332.612 500.31 332.098 500.323 331.557 500.47C331.017 500.616 330.567 500.864 330.208 501.213C329.846 501.552 329.608 501.955 329.494 502.421C329.368 502.881 329.373 503.358 329.508 503.854C329.646 504.358 329.888 504.78 330.233 505.122C330.567 505.457 330.977 505.684 331.465 505.804C331.95 505.914 332.462 505.896 333.003 505.749C333.543 505.603 333.994 505.36 334.356 505.02C334.716 504.671 334.958 504.267 335.084 503.808C335.198 503.341 335.186 502.856 335.048 502.352Z" fill="#8F8F76"/>
<path d="M332.286 489.289C332.487 489.969 332.517 490.627 332.374 491.262C332.223 491.9 331.92 492.456 331.467 492.93C331.013 493.404 330.442 493.742 329.752 493.944C329.063 494.147 328.398 494.172 327.759 494.019C327.12 493.866 326.568 493.562 326.101 493.105C325.635 492.649 325.301 492.081 325.1 491.401C324.898 490.721 324.869 490.063 325.011 489.428C325.154 488.792 325.453 488.242 325.909 487.777C326.363 487.304 326.934 486.966 327.624 486.763C328.313 486.561 328.978 486.536 329.617 486.688C330.253 486.832 330.809 487.131 331.284 487.585C331.75 488.041 332.084 488.609 332.286 489.289ZM331.44 489.538C331.291 489.037 331.047 488.622 330.706 488.294C330.354 487.96 329.934 487.743 329.447 487.643C328.96 487.543 328.448 487.572 327.91 487.73C327.373 487.887 326.927 488.14 326.572 488.487C326.218 488.835 325.988 489.243 325.884 489.711C325.768 490.173 325.784 490.655 325.932 491.156C326.081 491.657 326.331 492.075 326.683 492.409C327.024 492.737 327.439 492.956 327.929 493.065C328.416 493.165 328.928 493.136 329.466 492.978C330.003 492.82 330.449 492.567 330.804 492.22C331.155 491.864 331.39 491.455 331.506 490.992C331.61 490.524 331.588 490.039 331.44 489.538Z" fill="#8F8F76"/>
<path d="M329.077 478.7C329.274 479.333 329.249 479.878 329.001 480.336C328.75 480.785 328.309 481.108 327.676 481.304L319.706 483.774L319.409 482.826L327.299 480.38C327.718 480.25 328.008 480.052 328.17 479.787C328.323 479.525 328.338 479.198 328.215 478.806C328.137 478.556 328.03 478.355 327.894 478.202L328.663 477.89C328.847 478.136 328.985 478.406 329.077 478.7Z" fill="#8F8F76"/>
<path d="M326.753 471.404C326.974 472.078 327.022 472.734 326.898 473.373C326.765 474.016 326.479 474.58 326.039 475.067C325.6 475.553 325.038 475.908 324.355 476.131C323.672 476.353 323.008 476.397 322.365 476.263C321.722 476.129 321.161 475.841 320.682 475.398C320.202 474.956 319.852 474.397 319.631 473.723C319.41 473.049 319.362 472.393 319.486 471.753C319.61 471.114 319.894 470.556 320.336 470.078C320.776 469.591 321.337 469.236 322.02 469.014C322.704 468.791 323.367 468.747 324.01 468.881C324.65 469.006 325.215 469.289 325.703 469.728C326.182 470.171 326.532 470.73 326.753 471.404ZM325.914 471.677C325.751 471.18 325.495 470.773 325.145 470.455C324.784 470.131 324.358 469.926 323.868 469.84C323.378 469.754 322.867 469.798 322.335 469.972C321.802 470.145 321.364 470.41 321.019 470.768C320.675 471.126 320.457 471.54 320.366 472.011C320.264 472.477 320.294 472.958 320.457 473.454C320.619 473.951 320.882 474.361 321.243 474.685C321.593 475.003 322.015 475.209 322.507 475.304C322.997 475.39 323.508 475.346 324.041 475.173C324.573 474.999 325.012 474.734 325.356 474.376C325.697 474.01 325.92 473.594 326.022 473.129C326.113 472.657 326.077 472.173 325.914 471.677Z" fill="#8F8F76"/>
<path d="M317.929 463.878C317.385 463.817 316.92 463.611 316.532 463.26C316.142 462.901 315.836 462.399 315.614 461.754L316.528 461.442L316.592 461.671C316.845 462.404 317.267 462.901 317.86 463.161C318.453 463.422 319.156 463.414 319.969 463.136L323.519 461.922L323.842 462.861L316.875 465.244L316.565 464.344L317.929 463.878Z" fill="#8F8F76"/>
<path d="M319.381 452.545C319.226 452.115 319.01 451.746 318.731 451.44C318.44 451.127 318.099 450.897 317.709 450.749L318.126 450.006C318.605 450.181 319.024 450.462 319.381 450.85C319.739 451.237 320.017 451.708 320.216 452.261C320.472 452.972 320.55 453.658 320.451 454.318C320.342 454.982 320.075 455.563 319.65 456.062C319.224 456.561 318.673 456.932 317.996 457.174C317.32 457.416 316.661 457.488 316.021 457.39C315.377 457.283 314.813 457.024 314.328 456.613C313.843 456.202 313.482 455.667 313.245 455.008C313.024 454.393 312.965 453.79 313.069 453.197C313.171 452.596 313.419 452.061 313.816 451.592C314.21 451.114 314.724 450.752 315.359 450.505L318.514 455.799C319.013 455.423 319.343 454.948 319.504 454.375C319.653 453.796 319.612 453.186 319.381 452.545ZM314.049 454.72C314.223 455.203 314.493 455.597 314.861 455.902C315.216 456.201 315.636 456.388 316.119 456.463C316.59 456.532 317.085 456.474 317.604 456.289C317.735 456.241 317.83 456.202 317.889 456.172L315.181 451.624C314.639 451.937 314.261 452.374 314.047 452.937C313.824 453.502 313.824 454.097 314.049 454.72Z" fill="#8F8F76"/>
<path d="M304.982 432.959C304.645 432.099 304.63 431.329 304.935 430.649C305.237 429.96 305.871 429.428 306.836 429.052L310.815 427.503L311.177 428.429L307.289 429.942C306.576 430.22 306.101 430.606 305.863 431.099C305.621 431.584 305.623 432.139 305.868 432.765C306.147 433.477 306.588 433.952 307.191 434.187C307.786 434.427 308.47 434.396 309.244 434.094L312.845 432.692L313.207 433.618L309.319 435.132C308.606 435.409 308.13 435.795 307.892 436.288C307.651 436.773 307.654 437.332 307.903 437.967C308.178 438.671 308.619 439.145 309.226 439.39C309.82 439.629 310.505 439.598 311.279 439.296L314.879 437.894L315.241 438.82L308.379 441.492L308.033 440.606L309.285 440.118C308.772 440.037 308.318 439.823 307.922 439.477C307.526 439.13 307.217 438.674 306.996 438.109C306.772 437.536 306.7 436.993 306.78 436.481C306.857 435.96 307.094 435.502 307.491 435.107C306.94 435.031 306.446 434.808 306.011 434.437C305.563 434.06 305.22 433.568 304.982 432.959Z" fill="#8F8F76"/>
<path d="M298.511 416.792L305.319 413.985L305.683 414.864L304.337 415.419C304.909 415.507 305.41 415.729 305.841 416.087C306.268 416.435 306.599 416.894 306.835 417.464C307.099 418.102 307.192 418.74 307.112 419.378C307.033 420.017 306.791 420.591 306.386 421.101C305.981 421.612 305.442 422.006 304.769 422.283C304.096 422.561 303.436 422.661 302.788 422.585C302.14 422.509 301.567 422.271 301.068 421.871C300.561 421.475 300.175 420.957 299.911 420.319C299.682 419.767 299.594 419.223 299.644 418.688C299.683 418.147 299.864 417.643 300.186 417.177L298.892 417.711L298.511 416.792ZM305.987 417.722C305.791 417.248 305.507 416.866 305.134 416.575C304.749 416.28 304.309 416.108 303.814 416.059C303.316 416.002 302.808 416.081 302.29 416.294C301.772 416.508 301.357 416.81 301.045 417.201C300.728 417.584 300.543 418.014 300.487 418.491C300.42 418.963 300.485 419.436 300.681 419.911C300.881 420.394 301.173 420.783 301.558 421.078C301.931 421.369 302.367 421.543 302.865 421.6C303.36 421.648 303.866 421.565 304.384 421.352C304.901 421.138 305.318 420.84 305.635 420.457C305.947 420.066 306.137 419.634 306.205 419.162C306.26 418.685 306.187 418.205 305.987 417.722Z" fill="#8F8F76"/>
<path d="M293.309 404.539L299.252 401.986C300.401 401.492 301.372 401.41 302.165 401.74C302.962 402.057 303.605 402.782 304.092 403.913C304.362 404.539 304.525 405.175 304.58 405.822C304.64 406.456 304.583 407.019 304.408 407.511L303.514 407.346C303.665 406.896 303.723 406.404 303.686 405.871C303.646 405.329 303.515 404.802 303.293 404.287C302.924 403.43 302.451 402.887 301.874 402.657C301.306 402.424 300.602 402.488 299.761 402.849L298.899 403.219C299.45 403.318 299.937 403.551 300.359 403.918C300.778 404.276 301.107 404.734 301.348 405.291C301.621 405.925 301.733 406.563 301.684 407.203C301.623 407.839 301.408 408.414 301.04 408.928C300.66 409.437 300.152 409.827 299.518 410.1C298.883 410.373 298.254 410.47 297.631 410.393C297.005 410.306 296.443 410.065 295.947 409.669C295.451 409.272 295.065 408.753 294.788 408.11C294.54 407.536 294.432 406.967 294.464 406.405C294.496 405.843 294.67 405.326 294.985 404.855L293.686 405.414L293.309 404.539ZM300.498 405.549C300.288 405.061 299.995 404.663 299.619 404.358C299.235 404.055 298.808 403.878 298.338 403.826C297.865 403.765 297.388 403.838 296.908 404.045C296.427 404.251 296.051 404.545 295.778 404.926C295.493 405.303 295.333 405.732 295.297 406.215C295.249 406.693 295.332 407.18 295.546 407.677C295.757 408.166 296.05 408.563 296.426 408.869C296.798 409.166 297.221 409.345 297.694 409.406C298.164 409.458 298.639 409.381 299.119 409.174C299.599 408.968 299.982 408.677 300.266 408.3C300.548 407.915 300.712 407.484 300.761 407.006C300.796 406.523 300.709 406.038 300.498 405.549Z" fill="#8F8F76"/>
<path d="M289.2 395.322C288.823 394.478 288.771 393.699 289.044 392.985C289.305 392.265 289.905 391.696 290.842 391.278L294.742 389.539L295.148 390.446L291.338 392.146C290.639 392.457 290.184 392.87 289.974 393.382C289.764 393.895 289.803 394.475 290.093 395.123C290.417 395.847 290.891 396.325 291.516 396.557C292.129 396.785 292.815 396.729 293.574 396.391L297.103 394.817L297.508 395.724L290.783 398.724L290.394 397.855L291.635 397.302C291.115 397.237 290.647 397.037 290.231 396.701C289.803 396.361 289.459 395.901 289.2 395.322Z" fill="#8F8F76"/>
<path d="M282.606 380.688L289.293 377.603L289.693 378.467L288.37 379.077C288.945 379.141 289.455 379.343 289.9 379.682C290.341 380.013 290.69 380.458 290.949 381.018C291.239 381.644 291.357 382.278 291.304 382.92C291.251 383.561 291.033 384.145 290.649 384.671C290.265 385.198 289.743 385.614 289.082 385.919C288.421 386.224 287.765 386.351 287.115 386.302C286.465 386.252 285.882 386.038 285.368 385.659C284.844 385.283 284.438 384.782 284.148 384.155C283.897 383.613 283.786 383.073 283.815 382.536C283.832 381.994 283.992 381.483 284.295 381.004L283.024 381.591L282.606 380.688ZM290.113 381.311C289.897 380.845 289.598 380.474 289.213 380.199C288.817 379.92 288.37 379.766 287.874 379.738C287.374 379.702 286.869 379.801 286.361 380.035C285.853 380.27 285.45 380.589 285.154 380.993C284.853 381.389 284.685 381.826 284.65 382.305C284.602 382.779 284.685 383.25 284.901 383.716C285.12 384.19 285.428 384.567 285.825 384.846C286.209 385.121 286.651 385.277 287.151 385.314C287.648 385.342 288.15 385.238 288.659 385.004C289.167 384.769 289.571 384.454 289.872 384.059C290.168 383.654 290.34 383.215 290.388 382.741C290.424 382.262 290.332 381.785 290.113 381.311Z" fill="#8F8F76"/>
<path d="M274.836 364.287L281.472 361.094L281.885 361.951L280.573 362.583C281.149 362.637 281.662 362.83 282.112 363.163C282.558 363.487 282.915 363.926 283.182 364.481C283.482 365.103 283.611 365.735 283.568 366.377C283.525 367.019 283.316 367.607 282.941 368.139C282.566 368.672 282.05 369.096 281.394 369.412C280.738 369.728 280.085 369.866 279.434 369.827C278.783 369.788 278.197 369.583 277.677 369.212C277.148 368.845 276.733 368.351 276.433 367.729C276.174 367.191 276.054 366.653 276.075 366.115C276.083 365.572 276.234 365.059 276.529 364.575L275.268 365.182L274.836 364.287ZM282.351 364.788C282.128 364.325 281.823 363.96 281.434 363.691C281.033 363.418 280.584 363.271 280.087 363.251C279.587 363.223 279.084 363.33 278.58 363.573C278.075 363.816 277.678 364.142 277.388 364.55C277.094 364.951 276.933 365.391 276.905 365.87C276.865 366.345 276.956 366.814 277.179 367.277C277.406 367.747 277.72 368.119 278.121 368.393C278.509 368.661 278.954 368.81 279.455 368.838C279.951 368.858 280.452 368.747 280.957 368.504C281.461 368.261 281.86 367.94 282.154 367.539C282.444 367.13 282.609 366.688 282.65 366.213C282.678 365.734 282.578 365.258 282.351 364.788Z" fill="#8F8F76"/>
<path d="M277.878 353.561C278.17 354.156 278.229 354.699 278.055 355.19C277.876 355.673 277.489 356.06 276.895 356.352L269.405 360.03L268.966 359.138L276.38 355.497C276.774 355.304 277.031 355.064 277.149 354.777C277.26 354.494 277.224 354.168 277.043 353.799C276.928 353.565 276.791 353.382 276.634 353.252L277.344 352.825C277.564 353.039 277.742 353.285 277.878 353.561Z" fill="#8F8F76"/>
<path d="M269.291 352.958L268.849 352.068L275.444 348.792L275.887 349.682L269.291 352.958ZM267.625 353.222C267.716 353.406 267.73 353.592 267.667 353.78C267.604 353.967 267.485 354.105 267.31 354.192C267.142 354.275 266.965 354.285 266.777 354.222C266.589 354.159 266.45 354.035 266.358 353.851C266.267 353.668 266.253 353.482 266.316 353.294C266.371 353.111 266.481 352.977 266.649 352.894C266.833 352.803 267.018 352.789 267.206 352.852C267.394 352.915 267.533 353.039 267.625 353.222Z" fill="#8F8F76"/>
<path d="M263.508 341.43L272.503 336.882L272.952 337.769L269.292 339.619C269.855 339.679 270.359 339.869 270.803 340.188C271.235 340.504 271.586 340.928 271.855 341.461C272.171 342.085 272.319 342.717 272.297 343.355C272.262 343.99 272.062 344.577 271.698 345.117C271.333 345.657 270.821 346.094 270.163 346.426C269.514 346.755 268.863 346.906 268.212 346.88C267.56 346.853 266.971 346.66 266.443 346.299C265.907 345.943 265.483 345.456 265.171 344.84C264.893 344.291 264.761 343.74 264.775 343.189C264.785 342.63 264.939 342.108 265.237 341.622L263.938 342.279L263.508 341.43ZM271.03 341.784C270.798 341.326 270.486 340.966 270.092 340.705C269.686 340.44 269.234 340.302 268.737 340.292C268.236 340.273 267.736 340.39 267.236 340.643C266.736 340.896 266.35 341.227 266.076 341.637C265.79 342.043 265.634 342.489 265.607 342.973C265.576 343.449 265.676 343.916 265.908 344.374C266.144 344.84 266.465 345.206 266.871 345.471C267.273 345.728 267.725 345.866 268.226 345.884C268.714 345.899 269.209 345.78 269.708 345.527C270.208 345.274 270.601 344.945 270.887 344.539C271.169 344.124 271.325 343.679 271.357 343.203C271.375 342.723 271.266 342.25 271.03 341.784Z" fill="#8F8F76"/>
<path d="M257.36 329.368L263.924 326.029L264.356 326.878L263.158 327.487C263.676 327.517 264.151 327.678 264.583 327.972C265.007 328.269 265.352 328.68 265.619 329.204C266.055 330.061 266.164 330.859 265.943 331.599C265.711 332.335 265.133 332.938 264.21 333.408L260.404 335.344L259.953 334.458L263.671 332.567C264.362 332.215 264.799 331.778 264.983 331.255C265.167 330.732 265.098 330.155 264.776 329.523C264.425 328.833 263.939 328.394 263.32 328.206C262.692 328.023 262.004 328.121 261.256 328.502L257.812 330.254L257.36 329.368Z" fill="#8F8F76"/>
<path d="M251.382 317.512L257.972 314.226L258.398 315.078L257.095 315.728C257.671 315.774 258.186 315.96 258.641 316.286C259.092 316.604 259.455 317.038 259.73 317.589C260.038 318.207 260.176 318.838 260.142 319.48C260.108 320.123 259.907 320.713 259.539 321.251C259.172 321.789 258.662 322.221 258.01 322.545C257.359 322.87 256.708 323.018 256.056 322.988C255.405 322.958 254.816 322.761 254.291 322.398C253.757 322.038 253.335 321.55 253.027 320.932C252.76 320.397 252.633 319.861 252.646 319.323C252.646 318.78 252.791 318.265 253.079 317.777L251.826 318.402L251.382 317.512ZM258.903 317.908C258.674 317.449 258.363 317.087 257.971 316.824C257.566 316.557 257.115 316.416 256.618 316.403C256.117 316.382 255.616 316.496 255.115 316.746C254.614 316.996 254.221 317.327 253.937 317.74C253.649 318.145 253.494 318.587 253.473 319.067C253.439 319.542 253.537 320.01 253.766 320.469C253.999 320.937 254.319 321.304 254.723 321.572C255.116 321.835 255.562 321.978 256.063 321.999C256.56 322.012 257.059 321.893 257.56 321.644C258.061 321.394 258.456 321.067 258.744 320.662C259.029 320.249 259.188 319.805 259.221 319.329C259.242 318.849 259.136 318.376 258.903 317.908Z" fill="#8F8F76"/>
<path d="M254.997 308.032C255.087 308.216 255.097 308.409 255.028 308.608C254.955 308.799 254.822 308.942 254.629 309.036C254.436 309.129 254.246 309.144 254.059 309.079C253.859 309.01 253.714 308.884 253.624 308.699C253.534 308.514 253.524 308.322 253.593 308.123C253.653 307.927 253.78 307.783 253.973 307.689C254.166 307.595 254.363 307.582 254.562 307.651C254.762 307.72 254.907 307.847 254.997 308.032Z" fill="#8F8F76"/>
<path d="M238.621 296.422L247.546 292.374L247.958 293.278L246.453 293.961C247.774 294.069 248.755 294.828 249.396 296.239C249.879 297.301 249.939 298.278 249.575 299.17C249.212 300.063 248.44 300.777 247.258 301.313L241.942 303.724L241.513 302.781L246.804 300.381C247.748 299.953 248.357 299.4 248.633 298.722C248.905 298.034 248.852 297.275 248.473 296.442C248.075 295.567 247.511 295.003 246.781 294.75C246.039 294.492 245.153 294.597 244.125 295.063L239.05 297.365L238.621 296.422Z" fill="#8F8F76"/>
<path d="M242.795 282.577C243.023 282.684 243.232 282.844 243.423 283.057C243.606 283.274 243.755 283.52 243.871 283.796C244.139 284.432 244.173 284.995 243.974 285.483C243.775 285.972 243.361 286.348 242.733 286.612L236.369 289.284L235.983 288.368L237.468 287.744L236.603 285.693L237.378 285.368L238.242 287.419L242.295 285.717C242.7 285.547 242.968 285.319 243.1 285.03C243.223 284.746 243.205 284.414 243.045 284.036C242.871 283.623 242.614 283.336 242.273 283.176L242.795 282.577Z" fill="#8F8F76"/>
<path d="M237.771 270.903C237.613 270.473 237.394 270.106 237.114 269.801C236.821 269.491 236.479 269.263 236.087 269.118L236.5 268.371C236.98 268.544 237.401 268.822 237.761 269.208C238.121 269.593 238.402 270.062 238.604 270.614C238.865 271.323 238.947 272.009 238.851 272.67C238.747 273.334 238.483 273.916 238.061 274.418C237.639 274.92 237.09 275.294 236.415 275.54C235.74 275.787 235.082 275.863 234.441 275.769C233.797 275.666 233.231 275.41 232.743 275.002C232.255 274.594 231.891 274.061 231.65 273.404C231.425 272.791 231.363 272.187 231.463 271.594C231.561 270.992 231.806 270.456 232.2 269.984C232.591 269.504 233.103 269.138 233.736 268.887L236.924 274.163C237.42 273.783 237.748 273.306 237.905 272.732C238.05 272.152 238.006 271.542 237.771 270.903ZM232.452 273.111C232.629 273.593 232.902 273.985 233.271 274.288C233.629 274.585 234.049 274.769 234.533 274.841C235.005 274.907 235.499 274.846 236.016 274.657C236.148 274.609 236.243 274.57 236.301 274.539L233.566 270.008C233.025 270.324 232.65 270.764 232.439 271.328C232.22 271.895 232.224 272.489 232.452 273.111Z" fill="#8F8F76"/>
<path d="M227.374 261.092C227.098 260.21 227.138 259.431 227.494 258.754C227.838 258.071 228.5 257.577 229.481 257.273L233.559 256.009L233.856 256.958L229.871 258.193C229.14 258.42 228.64 258.775 228.371 259.259C228.101 259.743 228.073 260.324 228.284 261.001C228.521 261.758 228.936 262.289 229.53 262.593C230.112 262.892 230.8 262.918 231.593 262.672L235.284 261.528L235.58 262.477L228.546 264.657L228.262 263.748L229.56 263.346C229.051 263.22 228.61 262.966 228.236 262.584C227.851 262.195 227.563 261.698 227.374 261.092Z" fill="#8F8F76"/>
<path d="M224.808 252.296L224.55 251.336L231.667 249.445L231.925 250.405L224.808 252.296ZM223.121 252.223C223.174 252.421 223.151 252.606 223.052 252.777C222.953 252.948 222.809 253.059 222.62 253.11C222.439 253.158 222.263 253.132 222.092 253.033C221.92 252.933 221.808 252.785 221.754 252.586C221.701 252.388 221.724 252.203 221.823 252.032C221.913 251.863 222.048 251.755 222.228 251.707C222.427 251.654 222.612 251.678 222.784 251.777C222.955 251.876 223.068 252.025 223.121 252.223Z" fill="#8F8F76"/>
<path d="M221.364 238.073C221.182 237.167 221.3 236.406 221.719 235.791C222.136 235.166 222.853 234.753 223.869 234.553L228.058 233.725L228.254 234.699L224.161 235.508C223.41 235.656 222.875 235.952 222.555 236.396C222.233 236.831 222.138 237.378 222.27 238.037C222.421 238.787 222.773 239.331 223.327 239.669C223.871 240.008 224.55 240.098 225.365 239.937L229.156 239.188L229.352 240.162L225.259 240.971C224.508 241.119 223.973 241.415 223.652 241.859C223.33 242.294 223.237 242.845 223.371 243.513C223.52 244.254 223.872 244.798 224.427 245.145C224.971 245.485 225.651 245.574 226.466 245.413L230.256 244.664L230.452 245.639L223.228 247.066L223.04 246.133L224.359 245.872C223.868 245.703 223.457 245.413 223.127 245.002C222.797 244.592 222.573 244.089 222.453 243.495C222.332 242.891 222.355 242.344 222.523 241.854C222.69 241.355 223.002 240.946 223.462 240.627C222.932 240.455 222.485 240.149 222.12 239.707C221.745 239.258 221.492 238.713 221.364 238.073Z" fill="#8F8F76"/>
<path d="M218.428 215.095L225.778 214.645L225.84 215.595L224.387 215.684C224.9 215.951 225.303 216.324 225.597 216.802C225.889 217.27 226.056 217.811 226.096 218.426C226.141 219.115 226.024 219.749 225.744 220.327C225.464 220.905 225.05 221.37 224.502 221.722C223.955 222.073 223.318 222.271 222.591 222.316C221.865 222.36 221.207 222.242 220.618 221.96C220.029 221.678 219.562 221.267 219.218 220.727C218.865 220.188 218.665 219.574 218.62 218.884C218.581 218.288 218.672 217.745 218.892 217.255C219.102 216.756 219.435 216.338 219.89 216.001L218.493 216.087L218.428 215.095ZM225.21 218.396C225.177 217.884 225.03 217.43 224.77 217.035C224.5 216.63 224.139 216.325 223.686 216.119C223.232 215.904 222.726 215.813 222.167 215.848C221.608 215.882 221.117 216.034 220.695 216.303C220.273 216.562 219.959 216.909 219.753 217.342C219.538 217.767 219.447 218.235 219.481 218.747C219.515 219.269 219.667 219.732 219.937 220.136C220.197 220.532 220.553 220.837 221.007 221.052C221.46 221.258 221.966 221.344 222.525 221.31C223.084 221.276 223.575 221.129 223.997 220.869C224.419 220.6 224.738 220.253 224.953 219.829C225.159 219.395 225.244 218.918 225.21 218.396Z" fill="#8F8F76"/>
<path d="M215.276 201.231L225.657 201.609L225.627 202.56L224.172 202.507C224.657 202.824 225.022 203.234 225.268 203.738C225.513 204.232 225.627 204.788 225.607 205.403C225.586 206.094 225.407 206.713 225.073 207.261C224.738 207.809 224.281 208.232 223.702 208.528C223.123 208.825 222.47 208.96 221.742 208.933C221.015 208.907 220.371 208.724 219.813 208.387C219.254 208.049 218.829 207.594 218.539 207.023C218.239 206.452 218.1 205.821 218.122 205.131C218.141 204.534 218.284 204.002 218.551 203.535C218.808 203.059 219.18 202.676 219.665 202.385L215.244 202.224L215.276 201.231ZM224.728 205.287C224.745 204.774 224.643 204.308 224.422 203.889C224.193 203.461 223.863 203.122 223.432 202.873C223.001 202.614 222.506 202.475 221.946 202.454C221.387 202.434 220.884 202.537 220.438 202.764C219.992 202.981 219.646 203.295 219.4 203.706C219.144 204.108 219.008 204.565 218.992 205.079C218.976 205.601 219.082 206.076 219.312 206.505C219.532 206.924 219.857 207.263 220.288 207.521C220.719 207.77 221.214 207.905 221.774 207.926C222.334 207.946 222.836 207.847 223.282 207.63C223.728 207.404 224.079 207.089 224.334 206.688C224.581 206.277 224.712 205.81 224.728 205.287Z" fill="#8F8F76"/>
<path d="M220.676 179.739C220.838 178.83 221.226 178.165 221.841 177.747C222.457 177.319 223.275 177.198 224.294 177.385L228.494 178.156L228.32 179.134L224.216 178.382C223.463 178.244 222.857 178.322 222.397 178.617C221.938 178.903 221.65 179.377 221.533 180.039C221.399 180.792 221.527 181.428 221.919 181.946C222.301 182.462 222.901 182.795 223.718 182.945L227.518 183.642L227.344 184.62L223.241 183.868C222.488 183.73 221.882 183.808 221.421 184.103C220.963 184.389 220.674 184.868 220.555 185.538C220.422 186.283 220.551 186.918 220.941 187.445C221.323 187.961 221.923 188.294 222.74 188.444L226.54 189.141L226.366 190.12L219.123 188.792L219.29 187.854L220.612 188.097C220.217 187.759 219.941 187.338 219.784 186.835C219.627 186.331 219.602 185.781 219.708 185.184C219.816 184.577 220.037 184.077 220.373 183.683C220.71 183.28 221.151 183.015 221.695 182.887C221.265 182.533 220.961 182.083 220.783 181.538C220.597 180.982 220.562 180.383 220.676 179.739Z" fill="#8F8F76"/>
<path d="M222.987 169.105L223.228 168.141L230.363 169.966L230.122 170.93L222.987 169.105ZM221.55 168.217C221.5 168.416 221.39 168.567 221.221 168.668C221.051 168.769 220.871 168.795 220.682 168.747C220.501 168.7 220.359 168.592 220.258 168.421C220.156 168.251 220.13 168.066 220.18 167.867C220.23 167.668 220.339 167.518 220.509 167.416C220.669 167.313 220.84 167.284 221.021 167.331C221.22 167.381 221.37 167.492 221.472 167.663C221.574 167.833 221.6 168.018 221.55 168.217Z" fill="#8F8F76"/>
<path d="M225.192 160.586C225.455 159.701 225.923 159.077 226.595 158.715C227.261 158.341 228.085 158.303 229.068 158.6L233.154 159.838L232.872 160.791L228.879 159.582C228.146 159.36 227.533 159.374 227.04 159.625C226.547 159.875 226.2 160.341 225.998 161.021C225.772 161.781 225.821 162.454 226.144 163.039C226.46 163.613 227.016 164.02 227.811 164.261L231.509 165.381L231.226 166.334L224.178 164.199L224.449 163.287L225.749 163.68C225.397 163.291 225.173 162.833 225.076 162.306C224.973 161.768 225.012 161.195 225.192 160.586Z" fill="#8F8F76"/>
<path d="M228.165 151.262L228.486 150.321L235.442 152.739L235.121 153.68L228.165 151.262ZM226.807 150.256C226.741 150.451 226.619 150.591 226.442 150.678C226.264 150.764 226.083 150.775 225.898 150.711C225.721 150.649 225.59 150.53 225.503 150.351C225.416 150.173 225.405 149.986 225.472 149.792C225.538 149.598 225.66 149.457 225.837 149.371C226.006 149.281 226.179 149.267 226.355 149.328C226.549 149.396 226.689 149.519 226.776 149.697C226.863 149.876 226.874 150.062 226.807 150.256Z" fill="#8F8F76"/>
<path d="M233.077 137.707C233.417 136.848 233.929 136.274 234.615 135.985C235.304 135.689 236.129 135.733 237.091 136.118L241.054 137.707L240.689 138.632L236.817 137.079C236.106 136.795 235.496 136.751 234.987 136.949C234.481 137.138 234.104 137.546 233.858 138.171C233.577 138.883 233.577 139.531 233.857 140.116C234.13 140.698 234.651 141.143 235.422 141.452L239.009 142.89L238.644 143.815L234.771 142.262C234.061 141.978 233.451 141.934 232.941 142.132C232.435 142.321 232.057 142.733 231.807 143.367C231.53 144.07 231.53 144.718 231.807 145.312C232.079 145.894 232.601 146.339 233.372 146.648L236.958 148.086L236.593 149.011L229.758 146.271L230.108 145.385L231.355 145.885C231.035 145.475 230.848 145.008 230.794 144.484C230.74 143.96 230.825 143.415 231.047 142.851C231.274 142.278 231.59 141.832 231.997 141.512C232.408 141.184 232.892 141.011 233.451 140.994C233.1 140.562 232.891 140.061 232.825 139.491C232.753 138.909 232.838 138.315 233.077 137.707Z" fill="#8F8F76"/>
<path d="M244.347 112.537L249.533 118.727L249.088 119.647L241.055 119.343L241.506 118.411L248.339 118.688L243.92 113.42L244.347 112.537Z" fill="#8F8F76"/>
<path d="M253.678 108.535C253.887 108.129 254.009 107.718 254.043 107.305C254.074 106.879 254.01 106.472 253.852 106.085L254.679 105.884C254.878 106.356 254.957 106.855 254.917 107.381C254.877 107.907 254.723 108.432 254.454 108.955C254.108 109.627 253.66 110.152 253.11 110.528C252.551 110.9 251.945 111.1 251.291 111.128C250.636 111.155 249.99 111.003 249.353 110.671C248.715 110.339 248.215 109.905 247.85 109.368C247.491 108.823 247.296 108.232 247.266 107.596C247.236 106.96 247.382 106.33 247.702 105.708C248 105.127 248.402 104.673 248.906 104.346C249.414 104.011 249.974 103.829 250.587 103.801C251.204 103.764 251.819 103.895 252.432 104.193L250.709 110.115C251.325 110.225 251.896 110.143 252.425 109.871C252.949 109.587 253.367 109.141 253.678 108.535ZM248.459 106.102C248.224 106.559 248.121 107.026 248.148 107.503C248.172 107.968 248.321 108.403 248.595 108.809C248.865 109.202 249.244 109.525 249.732 109.78C249.857 109.844 249.95 109.888 250.012 109.91L251.493 104.825C250.895 104.64 250.318 104.66 249.761 104.886C249.196 105.108 248.762 105.513 248.459 106.102Z" fill="#8F8F76"/>
<path d="M253.56 94.5405C254 93.7278 254.586 93.2134 255.318 92.9972C256.047 92.7683 256.862 92.9004 257.762 93.3934L261.508 95.4437L261.035 96.318L257.375 94.3147C256.704 93.9472 256.101 93.8354 255.567 93.9792C255.033 94.1231 254.597 94.507 254.26 95.1309C253.882 95.8286 253.791 96.497 253.987 97.1361C254.178 97.7624 254.639 98.275 255.367 98.6738L258.757 100.529L258.284 101.404L251.824 97.8675L252.277 97.0302L253.468 97.6822C253.204 97.2291 253.079 96.7349 253.092 96.1997C253.102 95.6518 253.258 95.0988 253.56 94.5405Z" fill="#8F8F76"/>
<path d="M258.502 85.774L259.016 84.9228L265.304 88.755L264.791 89.6063L258.502 85.774ZM257.388 84.5046C257.282 84.6804 257.133 84.7919 256.941 84.8389C256.749 84.8859 256.569 84.8585 256.402 84.7565C256.243 84.6593 256.139 84.5144 256.092 84.3216C256.045 84.1289 256.074 83.9446 256.18 83.7687C256.286 83.5929 256.435 83.4815 256.627 83.4344C256.811 83.3825 256.983 83.4052 257.142 83.5023C257.317 83.6092 257.429 83.759 257.476 83.9517C257.523 84.1445 257.494 84.3287 257.388 84.5046Z" fill="#8F8F76"/>
<path d="M265.073 75.5606L271.134 79.7432L270.596 80.5291L269.398 79.7021C269.637 80.2296 269.724 80.7718 269.66 81.3286C269.601 81.8777 269.398 82.4065 269.05 82.915C268.66 83.4851 268.177 83.9112 267.6 84.1933C267.022 84.4754 266.41 84.5857 265.762 84.5243C265.114 84.4629 264.491 84.2254 263.892 83.812C263.293 83.3985 262.848 82.8991 262.559 82.3137C262.269 81.7284 262.156 81.1171 262.218 80.4799C262.273 79.8373 262.496 79.231 262.885 78.6608C263.223 78.1677 263.629 77.7963 264.105 77.5464C264.579 77.2836 265.098 77.1603 265.664 77.1763L264.512 76.3812L265.073 75.5606ZM268.372 82.3447C268.661 81.9209 268.826 81.4733 268.866 81.0017C268.903 80.5172 268.807 80.054 268.578 79.6122C268.354 79.1628 268.011 78.779 267.55 78.4609C267.089 78.1428 266.61 77.9594 266.112 77.9106C265.619 77.854 265.158 77.9329 264.729 78.1471C264.298 78.3483 263.937 78.6607 263.647 79.0845C263.352 79.516 263.186 79.974 263.149 80.4585C263.109 80.9301 263.201 81.3906 263.425 81.8401C263.655 82.2818 264 82.6618 264.461 82.9798C264.922 83.2979 265.398 83.4852 265.891 83.5417C266.389 83.5905 266.854 83.5144 267.285 83.3132C267.715 83.099 268.077 82.7762 268.372 82.3447Z" fill="#8F8F76"/>
<path d="M274.49 63.1762C275.081 62.466 275.747 62.0808 276.489 62.0208C277.237 61.9537 278.008 62.2529 278.802 62.9184L282.074 65.6616L281.439 66.4257L278.241 63.7455C277.655 63.2538 277.088 63.0225 276.542 63.0517C276.002 63.0736 275.517 63.3429 275.087 63.8595C274.597 64.4478 274.395 65.0634 274.479 65.7064C274.556 66.3434 274.913 66.9288 275.549 67.4624L278.51 69.9448L277.875 70.7089L274.677 68.0286C274.091 67.537 273.525 67.3057 272.978 67.3348C272.438 67.3568 271.95 67.6297 271.514 68.1534C271.03 68.7346 270.828 69.3502 270.906 70.0004C270.983 70.6374 271.34 71.2227 271.976 71.7564L274.938 74.2387L274.302 75.0028L268.658 70.2719L269.267 69.5401L270.297 70.4036C270.121 69.9149 270.089 69.4132 270.202 68.8986C270.314 68.384 270.565 67.8935 270.953 67.4271C271.347 66.9536 271.787 66.6286 272.274 66.4521C272.767 66.2685 273.281 66.2554 273.818 66.413C273.619 65.8932 273.577 65.3526 273.692 64.7913C273.806 64.2168 274.072 63.6785 274.49 63.1762Z" fill="#8F8F76"/>
<path d="M286.244 58.9223C286.392 58.7663 286.567 58.689 286.772 58.6902C286.969 58.685 287.146 58.7565 287.301 58.9045C287.383 58.9817 287.458 59.0789 287.527 59.1961C287.602 59.3065 287.678 59.4434 287.755 59.6067L288.75 61.3659L288.288 61.8541L287.145 60.1087C287.009 60.185 286.865 60.2152 286.712 60.1994C286.554 60.1771 286.41 60.1048 286.282 59.9825C286.126 59.8345 286.046 59.6614 286.041 59.4632C286.029 59.2585 286.096 59.0782 286.244 58.9223Z" fill="#8F8F76"/>
<path d="M293.143 43.8145L299.993 51.2098L299.265 51.8871L296.478 48.8776C296.576 49.4367 296.533 49.974 296.349 50.4896C296.165 50.992 295.855 51.4467 295.418 51.8537C294.905 52.3306 294.34 52.6469 293.721 52.8025C293.102 52.9449 292.483 52.9154 291.864 52.7139C291.245 52.5124 290.685 52.1412 290.184 51.6003C289.689 51.0662 289.364 50.4822 289.21 49.8483C289.055 49.2143 289.078 48.5936 289.279 47.9861C289.473 47.3717 289.823 46.8292 290.328 46.3586C290.779 45.9389 291.271 45.6595 291.804 45.5206C292.343 45.3752 292.887 45.3788 293.436 45.5314L292.446 44.4632L293.143 43.8145ZM294.88 51.1494C295.256 50.7996 295.515 50.3992 295.657 49.9482C295.799 49.484 295.807 49.0115 295.679 48.5306C295.559 48.0435 295.308 47.5945 294.928 47.1836C294.547 46.7728 294.122 46.4925 293.653 46.3429C293.184 46.18 292.714 46.1527 292.241 46.2608C291.776 46.3626 291.355 46.5884 290.98 46.9382C290.597 47.2943 290.334 47.7045 290.192 48.1687C290.056 48.6265 290.049 49.0991 290.169 49.5862C290.29 50.0602 290.541 50.5026 290.921 50.9135C291.302 51.3243 291.727 51.6111 292.195 51.774C292.671 51.9305 293.142 51.9578 293.607 51.856C294.073 51.741 294.497 51.5055 294.88 51.1494Z" fill="#8F8F76"/>
<path d="M303.086 35.1473L307.802 40.8038L307.072 41.4149L306.211 40.3825C306.297 40.8943 306.246 41.3938 306.057 41.8809C305.861 42.3609 305.538 42.7895 305.087 43.1669C304.35 43.7839 303.597 44.0678 302.826 44.0186C302.058 43.9562 301.341 43.5271 300.678 42.7314L297.944 39.4515L298.706 38.8135L301.378 42.0181C301.874 42.6132 302.397 42.942 302.947 43.0047C303.498 43.0673 304.045 42.871 304.589 42.4158C305.183 41.9186 305.502 41.347 305.547 40.701C305.586 40.0478 305.336 39.3986 304.798 38.7534L302.324 35.7853L303.086 35.1473Z" fill="#8F8F76"/>
<path d="M308.152 31.0471L308.934 30.4335L313.47 36.2349L312.688 36.8485L308.152 31.0471ZM307.557 29.4676C307.396 29.5943 307.217 29.6458 307.02 29.6219C306.824 29.598 306.665 29.5089 306.545 29.3545C306.43 29.2074 306.384 29.0355 306.408 28.8388C306.432 28.6421 306.525 28.4804 306.686 28.3536C306.848 28.2269 307.027 28.1755 307.223 28.1993C307.414 28.2159 307.567 28.2977 307.682 28.4447C307.808 28.6065 307.859 28.7857 307.835 28.9824C307.811 29.1791 307.719 29.3409 307.557 29.4676Z" fill="#8F8F76"/>
<path d="M318.725 32.2764C318.247 32.634 317.737 32.9103 317.195 33.1053C316.656 33.2872 316.184 33.3656 315.782 33.3404L315.672 32.4436C316.064 32.4538 316.494 32.3828 316.962 32.2306C317.425 32.0709 317.859 31.8402 318.262 31.5385C318.801 31.1362 319.136 30.7577 319.267 30.4031C319.4 30.0354 319.353 29.6981 319.124 29.3913C318.962 29.1742 318.766 29.0589 318.535 29.0454C318.298 29.0243 318.049 29.0649 317.787 29.1671C317.52 29.2617 317.185 29.4133 316.782 29.6216C316.236 29.8894 315.784 30.0874 315.426 30.2155C315.062 30.3362 314.691 30.3625 314.315 30.2944C313.946 30.2208 313.613 29.9856 313.318 29.589C312.95 29.0951 312.854 28.5373 313.031 27.9156C313.208 27.294 313.663 26.7093 314.395 26.1617C314.776 25.8767 315.197 25.6442 315.656 25.4639C316.11 25.2763 316.521 25.1725 316.891 25.1528L317.02 26.0525C316.283 26.0789 315.578 26.3436 314.906 26.8465C314.397 27.2265 314.079 27.604 313.951 27.9792C313.831 28.3488 313.88 28.6796 314.097 28.9714C314.264 29.1959 314.469 29.3225 314.712 29.351C314.962 29.3739 315.22 29.3381 315.487 29.2434C315.748 29.1412 316.095 28.9813 316.526 28.7637C317.064 28.5014 317.509 28.3091 317.86 28.1865C318.211 28.064 318.568 28.0358 318.932 28.102C319.295 28.1681 319.619 28.392 319.904 28.7737C320.288 29.2901 320.378 29.8637 320.173 30.4947C319.97 31.1125 319.488 31.7064 318.725 32.2764Z" fill="#8F8F76"/>
<path d="M327.428 16.7854C328.19 16.2629 328.947 16.0719 329.7 16.2126C330.454 16.3402 331.121 16.8277 331.701 17.675L334.112 21.1991L333.292 21.7612L330.937 18.318C330.504 17.6864 330.017 17.3131 329.475 17.1983C328.933 17.0835 328.369 17.2267 327.784 17.6278C327.13 18.0764 326.745 18.6291 326.629 19.2859C326.515 19.9297 326.693 20.5943 327.162 21.2799L329.344 24.4688L328.524 25.031L324.365 18.9534L325.151 18.4151L325.917 19.5358C325.888 19.013 326.001 18.5169 326.256 18.0474C326.514 17.565 326.905 17.1443 327.428 16.7854Z" fill="#8F8F76"/>
<path d="M341.702 16.2125C341.108 16.6002 340.486 16.8167 339.836 16.862C339.181 16.8995 338.562 16.7691 337.977 16.4706C337.393 16.1722 336.904 15.7219 336.512 15.1198C336.12 14.5177 335.905 13.8889 335.868 13.2333C335.83 12.5778 335.963 11.9615 336.267 11.3844C336.57 10.8074 337.019 10.325 337.613 9.93729C338.207 9.54957 338.829 9.33305 339.479 9.28772C340.129 9.2424 340.742 9.3715 341.319 9.67504C341.903 9.97348 342.392 10.4238 342.784 11.0259C343.177 11.628 343.391 12.2568 343.429 12.9123C343.474 13.5628 343.347 14.1804 343.049 14.7653C342.745 15.3424 342.296 15.8248 341.702 16.2125ZM341.221 15.4735C341.659 15.1878 341.986 14.835 342.202 14.4151C342.421 13.9822 342.509 13.5182 342.465 13.0232C342.421 12.5281 342.246 12.046 341.94 11.5768C341.634 11.1077 341.264 10.7531 340.829 10.5131C340.394 10.2731 339.937 10.1702 339.458 10.2042C338.982 10.2254 338.525 10.3788 338.087 10.6645C337.649 10.9502 337.321 11.3095 337.102 11.7423C336.885 12.1623 336.795 12.6224 336.831 13.1225C336.875 13.6176 337.05 14.0997 337.356 14.5689C337.662 15.038 338.032 15.3926 338.467 15.6326C338.91 15.8675 339.369 15.9743 339.846 15.9532C340.325 15.9191 340.783 15.7592 341.221 15.4735Z" fill="#8F8F76"/>
<path d="M350.969 10.2406C350.464 10.5598 349.934 10.7955 349.379 10.9477C348.827 11.087 348.351 11.1285 347.951 11.0721L347.911 10.1697C348.301 10.2103 348.735 10.173 349.215 10.0578C349.689 9.93474 350.139 9.73853 350.565 9.46921C351.133 9.11012 351.496 8.75898 351.655 8.41578C351.816 8.05971 351.795 7.71989 351.591 7.39631C351.446 7.16745 351.259 7.03726 351.029 7.00575C350.795 6.96634 350.543 6.98739 350.275 7.06889C350.001 7.1425 349.655 7.26743 349.236 7.44369C348.672 7.66818 348.206 7.83032 347.838 7.93013C347.466 8.02204 347.094 8.01944 346.724 7.92233C346.361 7.82023 346.048 7.56004 345.784 7.14176C345.455 6.62089 345.403 6.05757 345.628 5.4518C345.852 4.84603 346.351 4.29876 347.124 3.81C347.527 3.55564 347.964 3.35653 348.436 3.21266C348.903 3.0609 349.322 2.98954 349.692 2.99858L349.751 3.90526C349.014 3.8743 348.29 4.08325 347.58 4.53212C347.044 4.87126 346.697 5.22281 346.541 5.58678C346.392 5.94576 346.415 6.27914 346.609 6.58693C346.759 6.82369 346.953 6.96572 347.193 7.01301C347.44 7.05532 347.701 7.03967 347.974 6.96607C348.243 6.88457 348.601 6.75215 349.048 6.56882C349.605 6.34932 350.063 6.19216 350.423 6.09735C350.782 6.00253 351.141 6.00222 351.498 6.09643C351.856 6.19064 352.162 6.43899 352.416 6.84148C352.76 7.38603 352.805 7.96472 352.552 8.57756C352.301 9.17752 351.774 9.73186 350.969 10.2406Z" fill="#8F8F76"/>
<path d="M359.585 4.23023C359.515 4.47149 359.389 4.7032 359.209 4.92535C359.023 5.13958 358.803 5.32551 358.55 5.48314C357.963 5.84767 357.413 5.96986 356.899 5.84971C356.385 5.72955 355.948 5.38003 355.589 4.80114L351.949 -1.06306L352.793 -1.58769L353.642 -0.219772L355.533 -1.39464L355.976 -0.680947L354.085 0.493925L356.404 4.22894C356.635 4.60164 356.903 4.83047 357.209 4.91542C357.509 4.99244 357.834 4.92258 358.183 4.70583C358.563 4.46938 358.806 4.1702 358.911 3.80831L359.585 4.23023Z" fill="#8F8F76"/>
<path d="M361.442 -3.35147C361.382 -3.8952 361.481 -4.39417 361.739 -4.8484C362.005 -5.3075 362.428 -5.71544 363.008 -6.0722L363.514 -5.24899L363.304 -5.1363C362.644 -4.73066 362.251 -4.21018 362.127 -3.57484C362.002 -2.9395 362.164 -2.25596 362.614 -1.52422L364.577 1.67318L363.73 2.19367L359.877 -4.08184L360.688 -4.58033L361.442 -3.35147Z" fill="#8F8F76"/>
</svg>
